HIERARCHY
ROOT pelvis
{
  OFFSET 0 100 0
  CHANNELS 6 Xposition Yposition Zposition Zrotation Xrotation Yrotation
  JOINT pelvis_right_femur
  {
    OFFSET -10.78128 -3.44521 -0.5502486
    CHANNELS 3 Zrotation Xrotation Yrotation
    JOINT right_femur_tibia
    {
      OFFSET -0.8047443 -44.0398 -0.1307829
      CHANNELS 3 Zrotation Xrotation Yrotation
      JOINT right_tibia_foot
      {
        OFFSET 3.006224 -47.83518 -5
        CHANNELS 3 Zrotation Xrotation Yrotation
        End Site
        {
          OFFSET 0 -5 15
        }
      }
    }
  }
  JOINT pelvis_left_femur
  {
    OFFSET 10.78128 -3.44521 -0.5502486
    CHANNELS 3 Zrotation Xrotation Yrotation
    JOINT left_femur_tibia
    {
      OFFSET 0.8047443 -44.0398 -0.1307829
      CHANNELS 3 Zrotation Xrotation Yrotation
      JOINT left_tibia_foot
      {
        OFFSET -4.370144 -48.10324 -4.275266
        CHANNELS 3 Zrotation Xrotation Yrotation
        End Site
        {
          OFFSET 0 -5 15
        }
      }
    }
  }
  JOINT pelvis_spine1
  {
    OFFSET 0 6.468898 -3.129235
    CHANNELS 3 Zrotation Xrotation Yrotation
    JOINT spine1
    {
      OFFSET 0 23.15396 4.99043
      CHANNELS 3 Zrotation Xrotation Yrotation
      JOINT spine2
      {
        OFFSET 0 20.79997 -5.064912
        CHANNELS 3 Zrotation Xrotation Yrotation
        JOINT neck
        {
          OFFSET 0 14.38658 9.616178
          CHANNELS 3 Zrotation Xrotation Yrotation
          End Site
          {
            OFFSET 0 20 0
          }
        }
      }
      JOINT right_manubrium
      {
        OFFSET -5.722621 16.35077 3.967754
        CHANNELS 3 Zrotation Xrotation Yrotation
        JOINT right_clavicle
        {
          OFFSET -13.16364 1.694482 -4.693211
          CHANNELS 3 Zrotation Xrotation Yrotation
          JOINT right_humerus
          {
            OFFSET -28.5034 -0.3100689 -2.792744
            CHANNELS 3 Zrotation Xrotation Yrotation
            JOINT right_radius
            {
              OFFSET -25.15693 0.02248979 -1.271978
              CHANNELS 3 Zrotation Xrotation Yrotation
              End Site
              {
                OFFSET -15 0 0
              }
            }
          }
        }
      }
      JOINT left_manubrium
      {
        OFFSET 5.722621 16.35077 3.967754
        CHANNELS 3 Zrotation Xrotation Yrotation
        JOINT left_clavicle
        {
          OFFSET 13.16364 1.694482 -4.693211
          CHANNELS 3 Zrotation Xrotation Yrotation
          JOINT left_humerus
          {
            OFFSET 29.39168 -1.063119 -2.237045
            CHANNELS 3 Zrotation Xrotation Yrotation
            JOINT left_radius
            {
              OFFSET 24.59957 -0.9528479 0.9047498
              CHANNELS 3 Zrotation Xrotation Yrotation
              End Site
              {
                OFFSET 15 -0 -0
              }
            }
          }
        }
      }
    }
  }
}
MOTION
Frames: 7
Frame Time: 0.0416666666667
0 103.5113 0 1.598952 0.3439206 0.08506583 4.045726 -15.32175 10.58573 -0 33.03268 -0 -3.708693 -19.47885 -3.182131 -7.679243 8.751597 -20.67273 -0 3.722832 -0 19.46256 -9.658663 27.74443 -2.836603 -2.605545 4.901724 3.014383 10.20008 -7.753549 1.719789 21.29396 6.487032 2.654106 -26.14897 10.22177 5.393651 -19.54149 11.1662 87.03983 37.30716 -19.35618 -0 0 14.09455 -6.179744 8.639018 3.567127 6.067049 -20.7103 -1.623447 -91.41301 21.97088 19.71086 0 0 -18.41485 14.81697 13.9347 -2.739921
0.4868157 103.3788 1.792504 1.326415 0.962098 0.1827472 4.772705 -18.07413 11.33776 -0 33.24768 -0 -3.562213 -18.73425 -3.423406 -7.637631 9.615596 -20.88495 -0 4.387721 -0 19.26039 -10.70556 28.00033 -3.112999 -2.776067 4.8269 3.253094 10.17726 -7.884933 1.7104 21.17854 6.671251 2.559339 -26.79546 10.62584 5.352939 -19.79993 11.23315 87.11217 37.89161 -19.57142 -0 0 13.96495 -5.647517 8.379624 3.703032 6.088573 -20.61262 -1.573517 -90.87419 22.10975 19.0685 0 0 -20.1538 15.48884 13.13514 -3.412703
0.9022928 103.0571 3.825992 0.8100927 -0.4242492 0.2525127 5.082633 -19.68741 9.281607 -0 32.57726 -0 -5.973527 -15.37469 -3.113549 -6.876456 10.83892 -20.58414 -0 5.698423 -0 17.10287 -12.10838 27.03578 -2.858953 -2.513985 4.636059 3.198118 10.15989 -7.831379 1.662865 21.19433 6.657296 2.626099 -26.48124 10.39262 5.377743 -19.25877 11.27819 87.26205 37.68627 -19.79962 -0 0 13.21768 -6.194782 8.562125 4.074645 6.04896 -20.58912 -1.674464 -90.45821 22.03446 18.57214 0 0 -20.08836 14.90638 12.79148 -2.866823
1.263203 102.7603 6.002852 0.4449658 -0.03368873 0.2918349 5.658506 -22.36474 9.147996 -0 31.73226 -0 -6.269513 -13.94259 -3.085174 -6.643127 11.62317 -20.4871 -0 6.384 -0 15.88396 -13.62154 26.64281 -2.75042 -2.412844 4.478244 3.272235 10.1534 -7.867099 1.613258 21.14216 6.694443 2.627155 -26.50362 10.33403 5.407735 -18.96753 11.35325 87.38036 37.60128 -20.12184 -0 0 12.6544 -6.376763 8.586059 4.404266 6.004414 -20.55171 -1.741198 -90.08397 22.15531 18.13815 0 0 -20.57745 14.53055 12.29544 -2.447146
1.575579 102.4432 8.356882 0.07237933 0.7397321 0.356835 6.320105 -25.27481 9.215857 -0 30.30024 -0 -6.255484 -12.68212 -3.057131 -6.45882 12.25794 -20.27499 -0 7.026366 -0 14.65201 -15.20631 26.13184 -2.681626 -2.340773 4.364155 3.32671 10.1561 -7.900984 1.571822 21.09632 6.728813 2.631424 -26.50792 10.28696 5.412079 -18.77061 11.40936 87.49296 37.55584 -20.36832 -0 0 12.2432 -6.53061 8.608929 4.647128 5.977849 -20.54436 -1.804677 -89.76031 22.19044 17.7773 0 0 -21.01933 14.28809 11.88993 -2.185103
1.848496 102.104 10.95371 -0.2837011 1.69132 0.4702361 7.008224 -28.02377 9.312828 -0 28.31602 -0 -6.15757 -11.49076 -2.981843 -6.304194 12.7337 -19.88317 -0 7.799751 -0 13.58342 -16.54289 25.46362 -2.629581 -2.304938 4.267453 3.402873 10.16654 -7.953963 1.527971 21.03774 6.760805 2.623609 -26.56478 10.25273 5.424052 -18.63063 11.47084 87.58909 37.4795 -20.63318 -0 0 11.90426 -6.621088 8.604849 4.865583 5.943243 -20.54352 -1.864845 -89.51583 22.2843 17.51907 0 0 -21.45186 14.03071 11.51659 -1.876578
2.087502 101.7466 13.86962 -0.6212206 2.63743 0.6485484 7.643596 -30.37584 9.264047 -0 25.96984 -0 -6.152811 -10.23947 -2.830072 -6.148034 13.13302 -19.32286 -0 8.906561 -0 12.50677 -17.55543 24.54239 -2.581447 -2.271346 4.182517 3.468807 10.1809 -8.004602 1.485099 20.98276 6.788675 2.619364 -26.60054 10.21001 5.428624 -18.50833 11.52667 87.68551 37.3993 -20.87628 -0 0 11.6034 -6.724527 8.608134 5.062757 5.911896 -20.55447 -1.928172 -89.29008 22.34829 17.28851 0 0 -21.83949 13.78977 11.17773 -1.591379
